<svg width="200" height="97" fill="none" xmlns="http://www.w3.org/2000/svg"><path d="M61.772 63.419h12.692v4.184h-6.038V97h-6.654V63.419zM81.993 84.393l1.14-16.79h.382l1.14 16.79h-2.662zM74.623 97h6.516l.616-8.918h3.138l.62 8.918h6.512l-3.47-33.581H78.094l-3.471 33.58zM101.554 85.246v6.331c0 .854.654 1.101 1.036 1.101.628 0 1.064-.523 1.064-1.1V83.76c0-1.046-.191-2.202-2.673-2.202h-2.702V77.87h2.811c1.882 0 2.564-.44 2.564-2.505v-6.661c0-.578-.436-1.101-1.064-1.101-.382 0-1.036.22-1.036 1.1v5.478h-6.658V69.42c0-2.34.273-6 4.939-6h5.511c4.666 0 4.966 3.66 4.966 6v5.368c0 3.66-2.538 4.652-4.529 4.569v.33c4.474-.11 4.529 3.358 4.529 4.542V91c0 2.368-.3 6-4.966 6h-5.511c-4.666 0-4.939-3.632-4.939-6v-5.752h6.658zM114.678 63.419h15.416v33.58h-6.657V67.604h-2.101V97h-6.658V63.419zM141.118 81.888V67.603h.873c.71 0 1.228.605 1.228 1.679v10.927c0 1.074-.518 1.68-1.228 1.68h-.873zM134.46 97h6.658V85.577h3.82c4.638 0 4.938-3.634 4.938-6V69.418c0-2.34-.3-6-4.938-6H134.46v33.58zM163.001 91.577c0 .578-.437 1.101-1.064 1.101-.382 0-1.037-.247-1.037-1.1V68.703c0-.881.655-1.101 1.037-1.101.627 0 1.064.523 1.064 1.1v22.874zM154.242 91c0 2.368.301 6 4.939 6h5.539c4.638 0 4.938-3.632 4.938-6V69.42c0-2.34-.3-6-4.938-6h-5.539c-4.638 0-4.939 3.66-4.939 6V91zM191.324 63.419H200v33.58h-6.657V75.944h-.246L189.659 97h-5.32l-3.411-21.057h-.246V97h-6.657V63.419h8.649l4.339 23.617 4.311-23.617zM53.147 17.506C51.109 8.506 46 1.184 45.297 0c-1.113 1.68-5.187 8.148-7.258 15.304-2.262 8.01-2.595 15.112-1.815 22.076.775 6.991 3.703 14.175 3.703 14.175 1.555 3.744 3.886 7.79 5.403 9.772 2.223-2.918 7.334-11.616 8.927-22.956.887-6.331.925-11.864-1.11-20.865zm-7.85 41.564c-1.002-1.9-2.557-5.505-2.704-11.12-.038-5.396 2.109-10.047 2.736-11.01.56.963 2.41 5.009 2.63 10.542.15 5.395-1.628 9.661-2.662 11.588zm7.258-26.287c-.077 3.44-.483 7.074-1.002 9.248.186-3.743-.259-9-1.11-13.13-.852-4.1-3.26-10.982-5.184-14.147-1.777 3.028-3.965 8.973-5.11 14.12-1.152 5.148-1.185 11.396-1.185 13.268-.306-1.57-1.07-7.212-.854-12.855.18-4.652 1.26-9.469 1.853-11.67 2.259-7.35 4.815-12.057 5.296-12.8.48.743 3.7 6.551 5.37 12.634 1.66 6.083 1.997 11.919 1.926 15.332z" fill="#fff" fill-opacity=".5"/><path d="M48.753 63.419H33.258v10.487c.013 0 .024-.027.038-.027a9.286 9.286 0 0113.225 0c3.65 3.66 3.65 9.633 0 13.322-.017.028-.033.028-.05.055-.018 0-.037.028-.054.055a18.576 18.576 0 01-13.16 5.45c-4.78 0-9.56-1.817-13.205-5.505-6.429-6.469-7.19-16.515-2.29-23.837.66-.991 1.422-1.927 2.29-2.808 3.645-3.688 8.425-5.505 13.206-5.505V29.893C14.889 29.893 0 44.894 0 63.419c0 18.525 14.89 33.553 33.258 33.553 9.577 0 18.204-4.1 24.272-10.624v-22.93h-8.777z" fill="#fff" fill-opacity=".5"/></svg>