<svg aria-hidden="true" style="position:absolute;width:0;height:0" xmlns="http://www.w3.org/2000/svg" overflow="hidden"><defs><symbol id="icon-close" viewBox="0 0 32 32"><path fill="var(--color1, #fff)" d="M32 2.8L29.2 0 16 13.2 2.8 0 0 2.8 13.2 16 0 29.2 2.8 32 16 18.8 29.2 32l2.8-2.8L18.8 16 32 2.8z"/></symbol><symbol id="icon-mobile-menu" viewBox="0 0 45 32"><path fill="var(--color1, #fff)" d="M1.067 13.333h32v5.334h-32v-5.334zM1.067 0h42.666v5.333H1.067V0zm0 32H20.36v-5.333H1.067V32z"/></symbol><symbol id="icon-armchair" viewBox="0 0 32 32"><path fill="var(--color1, #fff)" d="M12.648 5.732h-.432V5.3a.469.469 0 00-.938 0v.432h-.432a.469.469 0 000 .938h.432v.432a.469.469 0 00.938 0V6.67h.432a.469.469 0 000-.938zm8.505 0h-.432V5.3a.469.469 0 00-.938 0v.432h-.432a.469.469 0 000 .938h.432v.432a.469.469 0 00.938 0V6.67h.432a.469.469 0 000-.938zm-8.505 6.442h-.432v-.432a.469.469 0 00-.938 0v.432h-.432a.469.469 0 000 .938h.433v.432a.469.469 0 00.938 0v-.432h.432a.469.469 0 000-.938zm8.505 0h-.432v-.432a.469.469 0 00-.938 0v.432h-.432a.469.469 0 000 .938h.433v.432a.469.469 0 00.938 0v-.432h.432a.469.469 0 000-.938z"/><path fill="var(--color1, #fff)" d="M29.008 13.281h-6.207a.962.962 0 00-.961.961v1.27c0 .53.431.961.961.961h.09v2.123a2.423 2.423 0 00-1.513-.526h-10.88a2.44 2.44 0 00-1.515.526v-2.128h.213c.53 0 .961-.432.961-.961v-1.27a.962.962 0 00-.961-.961H2.989a.962.962 0 00-.961.961v1.27c0 .53.431.961.961.961h.213v5.986a1.838 1.838 0 001.667 1.827l.007.001v.935a1.349 1.349 0 001.347 1.348h1.075v4.496h-.672a.469.469 0 000 .938h4.687a.469.469 0 000-.938h-.672v-4.496h10.587v4.496h-.672a.469.469 0 000 .938h4.687a.469.469 0 000-.938h-.672v-4.496h1.075a1.348 1.348 0 001.347-1.348v-.935a1.84 1.84 0 001.675-1.828v-5.981h.337c.53 0 .962-.432.962-.961v-1.27a.963.963 0 00-.962-.961zm-18.509 5.728h10.878a1.517 1.517 0 011.515 1.515v2.828H8.984v-2.828a1.517 1.517 0 011.515-1.515zm-7.507-3.478a.023.023 0 01-.023-.023v-1.27c0-.013.01-.023.023-.023h6.207c.013 0 .023.011.023.023v1.27a.023.023 0 01-.023.023H2.992zm2.048 7.821a.899.899 0 01-.897-.897v-5.986h3.904v6.883H5.04zm4.667 7.71H8.24v-4.496h1.467v4.496zm13.93 0H22.17v-4.496h1.467v4.496zm2.422-5.844a.41.41 0 01-.409.41H6.226a.41.41 0 01-.409-.41v-.928h20.241v.928zm1.675-2.763a.898.898 0 01-.897.897h-3.006v-6.879h3.903v5.982zm1.298-6.943c0 .013-.01.023-.023.023h-6.208a.023.023 0 01-.023-.023v-1.27c0-.013.011-.023.023-.023h6.207c.013 0 .024.011.024.023v1.27zM26.375 3.865A3.87 3.87 0 0022.509 0H9.364a3.87 3.87 0 00-3.865 3.865v7.687a.469.469 0 00.938 0V3.865A2.93 2.93 0 019.364.938h13.145a2.93 2.93 0 012.927 2.929l.037 7.686a.469.469 0 00.469.466h.002a.47.47 0 00.467-.469v-.002l-.037-7.684z"/></symbol><symbol id="icon-arrow-next" viewBox="0 0 82 32"><path fill="var(--color1, #fff)" d="M81.414 17.414c.362-.362.586-.862.586-1.414s-.224-1.052-.586-1.414L68.686 1.858a2 2 0 10-2.829 2.827l.001.001L77.172 16 65.858 27.314a2 2 0 002.829 2.827l-.001.001 12.728-12.728zM0 18h80v-4H0v4z"/></symbol><symbol id="icon-arrow-prev" viewBox="0 0 82 32"><path fill="var(--color2, #c4c4c4)" d="M.586 14.586C.224 14.948 0 15.448 0 16s.224 1.052.586 1.414l12.728 12.728a2 2 0 002.827-2.829l.001.001L4.828 16 16.142 4.686a2 2 0 00-2.829-2.825l.001-.001L.586 14.586zM82 14H2v4h80v-4z"/></symbol><symbol id="icon-facebook" viewBox="0 0 18 32"><path fill="var(--color1, #fff)" opacity=".6" d="M17.766.006L13.338 0c-4.975 0-8.19 3.09-8.19 7.876v3.631H.696c-.385 0-.697.292-.697.652v5.262c0 .361.311.652.697.652h4.452v13.275c0 .361.311.652.697.652h5.809c.384 0 .695-.293.695-.652V18.073h5.206c.385 0 .697-.292.697-.652l.001-5.262a.643.643 0 00-.203-.462.72.72 0 00-.489-.191h-5.212V8.428c0-1.479.377-2.23 2.433-2.23l2.983-.001c.384 0 .695-.293.695-.652V.659c0-.359-.311-.651-.695-.652z"/></symbol><symbol id="icon-instagram" viewBox="0 0 32 32"><path fill="var(--color1, #fff)" opacity=".6" d="M22 0H10C4.477.001.001 4.477 0 10v12c.001 5.523 4.477 9.999 10 10h12c5.523-.001 9.999-4.477 10-10V10C31.999 4.477 27.523.001 22 0zm7.001 22a7.009 7.009 0 01-7 7.001h-12a7.009 7.009 0 01-7.001-7v-12A7.009 7.009 0 0110 3h12a7.009 7.009 0 017.001 7v12z"/><path fill="var(--color1, #fff)" opacity=".6" d="M16 8a8 8 0 000 16 8 8 0 000-16zm0 13.001a5.007 5.007 0 01-5.001-5 5.006 5.006 0 015-5.001A5.006 5.006 0 0121 16a5.007 5.007 0 01-5 5.001zm8.597-12.535a1.066 1.066 0 100-2.132 1.066 1.066 0 100 2.132z"/></symbol><symbol id="icon-logo" viewBox="0 0 66 32"><path fill="var(--color1, #fff)" opacity=".5" d="M20.378 20.922h4.187v1.38h-1.992V32h-2.195V20.922zm6.671 6.919l.376-5.539h.126l.376 5.539h-.878zM24.618 32h2.15l.203-2.942h1.035L28.211 32h2.148l-1.145-11.078h-3.451L24.618 32zm8.884-3.878v2.089c0 .282.216.363.342.363a.355.355 0 00.351-.363v-2.579c0-.345-.063-.726-.882-.726h-.891v-1.217h.927c.621 0 .846-.145.846-.826v-2.197a.355.355 0 00-.351-.363c-.126 0-.342.073-.342.363v1.807h-2.196v-1.571c0-.772.09-1.979 1.629-1.979h1.818c1.539 0 1.638 1.207 1.638 1.979v1.771c0 1.207-.837 1.535-1.494 1.507v.109c1.476-.036 1.494 1.108 1.494 1.498v2.234c0 .781-.099 1.979-1.638 1.979h-1.818c-1.539 0-1.629-1.198-1.629-1.979v-1.898h2.196zm4.33-7.2h5.086V32h-2.196v-9.697h-.693v9.698h-2.196V20.923zm8.722 6.093v-4.713h.288c.234 0 .405.2.405.554v3.605c0 .354-.171.554-.405.554h-.288zM44.358 32h2.196v-3.768h1.26c1.53 0 1.629-1.199 1.629-1.979v-3.351c0-.772-.099-1.979-1.629-1.979h-3.457v11.078zm9.416-1.789a.355.355 0 01-.351.363.338.338 0 01-.342-.363v-7.546c0-.291.216-.363.342-.363.207 0 .351.173.351.363v7.546zm-2.89-.19c0 .781.099 1.979 1.629 1.979h1.827c1.53 0 1.629-1.198 1.629-1.979v-7.119c0-.772-.099-1.979-1.629-1.979h-1.827c-1.53 0-1.629 1.207-1.629 1.979v7.119zm12.233-9.099h2.862V32h-2.196v-6.946h-.081L62.568 32h-1.755l-1.125-6.947h-.081V32h-2.196V20.922h2.853l1.431 7.791 1.422-7.791zM17.533 5.775C16.861 2.806 15.175.39 14.943 0c-.367.554-1.711 2.688-2.394 5.049a18.472 18.472 0 00-.599 7.283c.256 2.306 1.222 4.676 1.222 4.676.513 1.235 1.282 2.57 1.782 3.224.733-.963 2.419-3.832 2.945-7.573.293-2.089.305-3.914-.366-6.883zm-2.59 13.712c-.331-.627-.844-1.816-.892-3.668-.013-1.78.696-3.314.903-3.632.185.318.795 1.652.868 3.478a7.868 7.868 0 01-.878 3.823zm2.395-8.672c-.025 1.135-.159 2.334-.331 3.051.061-1.235-.085-2.969-.366-4.332-.281-1.353-1.075-3.623-1.71-4.667-.586.999-1.308 2.96-1.686 4.658-.38 1.698-.391 3.759-.391 4.377-.101-.518-.353-2.379-.282-4.241.059-1.535.416-3.124.611-3.85.745-2.425 1.588-3.978 1.747-4.223.158.245 1.221 2.161 1.772 4.168.548 2.007.659 3.932.635 5.058z"/><path fill="var(--color1, #fff)" opacity=".5" d="M16.083 20.922h-5.112v3.46c.004 0 .008-.009.013-.009.556-.564 1.328-.913 2.181-.913s1.626.349 2.181.912a3.125 3.125 0 010 4.395c-.006.009-.011.009-.017.018a6.108 6.108 0 01-4.354 1.816h-.005a6.093 6.093 0 01-4.356-1.816c-2.121-2.134-2.372-5.448-.755-7.864.218-.327.469-.636.755-.926a6.093 6.093 0 014.357-1.816V9.861c-6.06 0-10.972 4.949-10.972 11.06S4.911 31.99 10.971 31.99c3.159 0 6.005-1.353 8.007-3.505V20.92h-2.895z"/></symbol><symbol id="icon-search" viewBox="0 0 32 32"><path fill="var(--color1, #fff)" d="M31.805 29.92l-9.296-9.296a12.528 12.528 0 002.825-7.95v-.007C25.334 5.682 19.652 0 12.667 0S0 5.682 0 12.667s5.682 12.667 12.667 12.667c3.013 0 5.78-1.061 7.957-2.825l9.295 9.296c.261.26.683.26.943 0l.943-.943a.663.663 0 000-.942zm-19.138-7.253c-5.515 0-10-4.485-10-10s4.485-10 10-10 10 4.485 10 10-4.485 10-10 10z"/></symbol><symbol id="icon-star" viewBox="0 0 35 32"><path fill="var(--color3, #d1a954)" d="M17.333 0l-5.357 10.537L0 12.217l8.667 8.205-2.049 11.577 10.716-5.463 10.716 5.463-2.049-11.577 8.667-8.195-11.976-1.691L17.335-.001z"/></symbol><symbol id="icon-theater" viewBox="0 0 32 32"><path fill="var(--color1, #fff)" d="M31.509 15.379V1.8a.47.47 0 00-.47-.47H.959a.47.47 0 00-.469.47v13.579a.92.92 0 00-.49.813v.964c0 .352.199.658.49.812v12.234c0 .259.21.47.469.47h30.08a.47.47 0 00.47-.47V17.968a.922.922 0 00.491-.812v-.964a.918.918 0 00-.491-.812zm-1.115-13.11c-.188.276-.535.6-1.085.945l-.021.013a1.84 1.84 0 01-.11.068l-.034.019-.077.045-.063.037-.063.035-.079.044-.015.008c-.068.037-.139.073-.21.11l-.058.03-.085.042-.079.038a5.215 5.215 0 01-.314.149l-.067.027-.031.014c-.192.084-.396.169-.613.253a23.295 23.295 0 01-3.519 1.036l-.172.031a.67.67 0 00-.05.007l.003-.001c-.935.196-1.919.357-2.924.478l-.038.007a38.52 38.52 0 01-4.667.275h-.024H16h-.025c-1.644 0-3.264-.1-4.856-.293l.191.019-.037-.007a34.622 34.622 0 01-3.152-.519l.227.041-.045-.007h-.002a25.67 25.67 0 01-2.975-.798l.185.054c-.434-.141-.733-.25-1.029-.367l.127.044a12.97 12.97 0 01-.711-.291l.097.039-.031-.014a9.433 9.433 0 01-.386-.174l.081.035-.077-.037-.079-.038c-.028-.014-.057-.027-.084-.042l-.058-.03c-.071-.037-.141-.073-.208-.11l-.016-.009-.079-.043-.063-.035-.064-.037c-.065-.036-.09-.051-.115-.066l.038.021-.046-.027a4.129 4.129 0 01-.127-.077l.03.017-.021-.013c-.55-.345-.896-.669-1.084-.945h28.786zM1.429 3.46c.145.125.311.253.499.382.498.345 1.163.704 2.046 1.063-.001 2.949-.861 6.231-1.597 8.499a.47.47 0 10.892.293l.001-.003c.729-2.245 1.574-5.462 1.638-8.439l.309.105c.611.213 1.426.444 2.256.636l.179.035c-.992 3.079-2.61 5.617-3.822 7.234a.47.47 0 10.751.565l.001-.001c1.268-1.691 2.965-4.357 3.995-7.602.646.127 1.312.237 1.991.329-.994 2.437-2.984 4.946-4.533 6.674a.47.47 0 00.699.627c2.888-3.222 4.2-5.637 4.795-7.182a40.933 40.933 0 008.94 0c1.015 2.64 3.15 5.347 4.8 7.187a.469.469 0 00.815-.319.465.465 0 00-.115-.308v.001c-1.551-1.73-3.542-4.241-4.537-6.679a33.395 33.395 0 002.215-.367l-.224.037c1.03 3.248 2.731 5.916 4.001 7.61a.466.466 0 00.658.093l-.001.001a.468.468 0 00.094-.657c-1.214-1.619-2.835-4.16-3.828-7.242a25.709 25.709 0 002.622-.725l-.187.054.309-.105c.064 2.976.909 6.191 1.637 8.434a.47.47 0 00.893-.294l.001.003c-.736-2.267-1.595-5.546-1.595-8.494.882-.359 1.547-.718 2.046-1.063.188-.129.354-.256.499-.382v11.812h-2.604a.92.92 0 00-.919.919v.964c0 .25.101.476.262.642-.206.546-.53 1.587-.83 2.639l-.118.484H5.639a68.745 68.745 0 00-.948-3.123.917.917 0 00.263-.642v-.964a.92.92 0 00-.919-.919H1.431V3.46zm-.49 13.675v-.923h3.074v.923H.938zm2.416 12.443a.298.298 0 01-.26.153H1.43V18.073h.45c1.71 5.789 2.261 10.077 1.475 11.505zm2.302.153V27.14c0-.558.454-1.012 1.012-1.012h2.438c.558 0 1.012.454 1.012 1.012v2.591H5.657zm5.4 0V27.14c0-.558.454-1.012 1.012-1.012h2.438c.558 0 1.012.454 1.012 1.012v2.591h-4.462zm5.401 0V27.14c0-.558.454-1.012 1.012-1.012h2.438c.558 0 1.012.454 1.012 1.012v2.591h-4.462zm9.863 0h-4.462V27.14c0-.558.454-1.012 1.012-1.012h2.438c.558 0 1.012.454 1.012 1.012v2.591zm.939 0V27.14a1.953 1.953 0 00-1.951-1.951h-2.438c-.592 0-1.122.264-1.479.681l-.002.003a1.944 1.944 0 00-1.481-.683h-2.438c-.592 0-1.122.264-1.479.681l-.002.003a1.944 1.944 0 00-1.481-.683H12.07c-.592 0-1.122.264-1.479.681l-.002.003a1.944 1.944 0 00-1.481-.683H6.669a1.953 1.953 0 00-1.951 1.95v2.591h-.401c.951-2.405-.408-8.051-1.458-11.658h.935c.443 1.347 1.024 3.244 1.469 5.17a.47.47 0 10.914-.215l.001.003a42.8 42.8 0 00-.287-1.174h20.222c-.101.391-.198.787-.29 1.185a.47.47 0 10.915.215l.001-.003c.445-1.93 1.027-3.832 1.472-5.182h.935c-1.05 3.606-2.41 9.253-1.458 11.658h-.425zm3.311 0h-1.665a.298.298 0 01-.259-.151l-.001-.001c-.786-1.428-.235-5.716 1.475-11.505h.45v11.658zm.49-12.596h-3.075v-.923h3.075v.923z"/></symbol><symbol id="icon-vk" viewBox="0 0 59 32"><path fill="var(--color1, #fff)" opacity=".6" d="M59.113 28.898a3.583 3.583 0 00-.21-.381l.009.016c-1.031-1.751-3.001-3.902-5.911-6.453l-.059-.057-.064-.059h-.03c-1.321-1.189-2.155-1.986-2.505-2.395-.64-.777-.784-1.566-.434-2.366.247-.603 1.175-1.877 2.784-3.824a212.921 212.921 0 002.011-2.482c3.568-4.478 5.115-7.337 4.64-8.585l-.183-.29c-.123-.176-.443-.336-.96-.482s-1.175-.171-1.979-.073l-8.912.057a1.212 1.212 0 00-.626.018l.009-.002-.407.085-.155.073-.121.089a1.365 1.365 0 00-.341.304l-.002.003a1.951 1.951 0 00-.301.497l-.005.013c-1.053 2.558-2.164 4.718-3.43 6.773l.115-.201a59.728 59.728 0 01-2.103 3.138c-.64.887-1.175 1.538-1.607 1.957a10.9 10.9 0 01-1.177 1.006c-.35.256-.617.361-.805.322a17.043 17.043 0 01-.687-.146l.161.032a2.012 2.012 0 01-.692-.708l-.005-.01a3.019 3.019 0 01-.353-1.124l-.001-.014a11.257 11.257 0 01-.109-1.159l-.001-.025c-.009-.329-.005-.798.016-1.401.023-.603.032-1.013.032-1.225 0-.741.014-1.543.046-2.409.032-.869.055-1.554.078-2.059.021-.507.03-1.042.03-1.607s-.037-1.006-.107-1.328a4.352 4.352 0 00-.336-.961l.011.026a1.614 1.614 0 00-.626-.698l-.007-.004A3.64 3.64 0 0032.791.39l-.025-.005c-1.09-.231-2.48-.359-4.176-.377-3.835-.039-6.302.194-7.394.702a4.095 4.095 0 00-1.175.875c-.373.427-.423.663-.155.699 1.237.176 2.114.594 2.629 1.257l.187.35c.144.251.288.702.434 1.344.144.64.235 1.353.277 2.13a21.46 21.46 0 01-.006 3.731l.006-.081a39.962 39.962 0 01-.295 2.366c-.091.565-.231 1.022-.416 1.371a5.641 5.641 0 01-.385.662l.013-.02a.52.52 0 01-.151.145l-.002.001c-.27.098-.549.146-.837.146s-.64-.137-1.051-.409a7.36 7.36 0 01-1.279-1.118l-.006-.006a14.974 14.974 0 01-1.465-1.939l-.036-.061A32.193 32.193 0 0115.84 9.31l-.09-.193-.494-.846a78.668 78.668 0 01-1.269-2.382 36.78 36.78 0 01-1.312-2.736l-.112-.288a1.956 1.956 0 00-.736-.928l-.007-.004-.153-.089a2.146 2.146 0 00-.481-.242l-.015-.005a3.289 3.289 0 00-.691-.187l-.02-.003-8.48.057c-.862 0-1.454.185-1.76.555l-.128.176a.89.89 0 00-.091.469v-.003c0 .215.062.478.185.789 1.468 3.259 2.817 5.865 4.281 8.396l-.242-.454c1.454 2.551 2.718 4.608 3.79 6.162a74.487 74.487 0 003.28 4.409c1.113 1.381 1.851 2.267 2.213 2.656s.645.681.85.878l.775.699c.494.469 1.221 1.029 2.181 1.68s2.021 1.294 3.186 1.927a17.365 17.365 0 003.945 1.521l.124.027c1.145.317 2.461.499 3.818.499.246 0 .491-.006.735-.018l-.034.001h3.559c.722-.059 1.269-.274 1.639-.642l.123-.146c.082-.114.16-.297.231-.539.073-.245.11-.512.11-.802-.023-.839.046-1.593.201-2.263.153-.672.329-1.179.526-1.52s.418-.626.665-.862c.247-.233.423-.373.526-.423a1.99 1.99 0 01.233-.099l.014-.004c.496-.155 1.079-.005 1.751.455.67.457 1.298 1.022 1.886 1.691.59.674 1.296 1.426 2.121 2.263.823.839 1.547 1.463 2.165 1.87l.617.352c.416.233.951.448 1.611.64.658.197 1.237.245 1.733.149l7.92-.117c.784 0 1.394-.123 1.826-.366.434-.245.69-.512.773-.802a2.155 2.155 0 00.013-1.009l.003.014a3.46 3.46 0 00-.226-.796l.009.023z"/></symbol><symbol id="icon-youtube" viewBox="0 0 46 32"><path fill="var(--color1, #fff)" opacity=".6" d="M36.622 0H9.6C4.299 0 0 4.204 0 9.392v13.216C0 27.796 4.299 32 9.6 32h27.022c5.301 0 9.6-4.204 9.6-9.392V9.392c0-5.188-4.299-9.392-9.6-9.392zM30.13 16.644l-12.64 5.897a.507.507 0 01-.726-.447V9.93c0-.37.4-.61.738-.444l12.64 6.268a.492.492 0 01-.01.887l-.003.001z"/></symbol></defs></svg>